<?xml version="1.0" standalone="no"?>
<!DOCTYPE svg PUBLIC "-//W3C//DTD SVG 20010904//EN"
 "http://www.w3.org/TR/2001/REC-SVG-20010904/DTD/svg10.dtd">
<svg version="1.0" xmlns="http://www.w3.org/2000/svg"
 width="134.000000pt" height="134.000000pt" viewBox="0 0 134.000000 134.000000"
 preserveAspectRatio="xMidYMid meet">

<g transform="translate(0.000000,134.000000) scale(0.100000,-0.100000)"
fill="#000000" stroke="none">
<path d="M360 1329 c-124 -24 -251 -123 -308 -239 -46 -93 -52 -144 -52 -420
0 -276 6 -327 52 -420 58 -120 185 -215 317 -240 70 -13 532 -13 602 0 132 25
259 120 317 240 46 93 52 144 52 420 0 276 -6 327 -52 420 -58 120 -185 215
-317 240 -65 12 -548 11 -611 -1z m320 -299 c0 -6 -6 -23 -14 -38 -7 -15 -17
-37 -20 -49 l-7 -23 260 0 c143 0 262 -4 265 -9 3 -5 -2 -18 -12 -30 -16 -20
-26 -21 -282 -24 l-265 -2 -97 -215 c-54 -118 -97 -218 -98 -222 0 -5 117 -8
259 -8 143 0 262 -4 265 -8 3 -5 -2 -18 -10 -30 -15 -22 -16 -22 -435 -22
-301 0 -419 3 -419 11 0 6 59 142 131 303 72 160 140 310 150 334 l18 42 156
0 c101 0 155 -4 155 -10z m290 4 c0 -3 -5 -14 -10 -25 -9 -17 -22 -19 -105
-19 -52 0 -95 3 -95 6 0 3 5 14 10 25 9 17 22 19 105 19 52 0 95 -3 95 -6z
m248 -16 c-3 -22 -8 -23 -100 -26 -97 -3 -104 0 -92 32 5 13 24 16 101 16 92
0 94 -1 91 -22z"/>
</g>
</svg>
